<svg id="visual" viewBox="0 0 900 600" width="900" height="600" xmlns="http://www.w3.org/2000/svg" xmlns:xlink="http://www.w3.org/1999/xlink" version="1.1"><rect x="0" y="0" width="900" height="600" fill="#FFFFFF"></rect><path d="M0 436L21.5 437C43 438 86 440 128.8 431.5C171.7 423 214.3 404 257.2 405.2C300 406.3 343 427.7 385.8 426.7C428.7 425.7 471.3 402.3 514.2 393.2C557 384 600 389 642.8 396.7C685.7 404.3 728.3 414.7 771.2 428.5C814 442.3 857 459.7 878.5 468.3L900 477L900 601L878.5 601C857 601 814 601 771.2 601C728.3 601 685.7 601 642.8 601C600 601 557 601 514.2 601C471.3 601 428.7 601 385.8 601C343 601 300 601 257.2 601C214.3 601 171.7 601 128.8 601C86 601 43 601 21.5 601L0 601Z" fill="#0066FF" stroke-linecap="round" stroke-linejoin="miter"></path></svg>